<svg height="612.278" viewBox="0 0 513.895 612.278" width="513.895" xmlns="http://www.w3.org/2000/svg" xmlns:xlink="http://www.w3.org/1999/xlink"><linearGradient id="a" gradientTransform="matrix(.9185085 .39540123 -.39540123 .9185085 101.632 -86.44)" gradientUnits="userSpaceOnUse" x1="260.775" x2="260.227" y1="232.675" y2="169.41"><stop offset="0" stop-color="#898994"/><stop offset="1" stop-color="#fffaf5"/></linearGradient><linearGradient id="b" gradientUnits="userSpaceOnUse" x1="229.087" x2="525.093" y1="446.026" y2="323.736"><stop offset="0" stop-color="#caccd2"/><stop offset="1" stop-color="#fffaf5"/></linearGradient><linearGradient id="c" x1="205.858" x2="355.26" xlink:href="#b" y1="248.024" y2="248.024"/><linearGradient id="d" x1="241.185" x2="343.425" xlink:href="#b" y1="212.338" y2="212.338"/><linearGradient id="e" x1="196.898" x2="318.848" xlink:href="#b" y1="245.079" y2="245.079"/><linearGradient id="f" x1="175.372" x2="238.775" xlink:href="#b" y1="136.248" y2="25.568"/><linearGradient id="g" gradientTransform="matrix(.50033249 .86583335 -.86583335 .50033249 217.272 -112.431)" gradientUnits="userSpaceOnUse" x1="174.912" x2="226.512" y1="175.236" y2="103.636"><stop offset="0" stop-color="#fffaf5"/><stop offset="1" stop-color="#a9a9b3"/></linearGradient><g stroke="#333"><ellipse cx="260.521" cy="203.341" fill="url(#a)" rx="73.706" ry="13.371" stroke-miterlimit="10" transform="matrix(.9185085 -.39540123 .39540123 .9185085 -59.171 119.582)"/><rect fill="#ba341d" height="82.99" rx="14.681" stroke-linejoin="round" transform="matrix(.34873563 -.93722114 .93722114 .34873563 -38.58 376.923)" width="29.361" x="237.238" y="174.726"/><path d="m256.925 202.42-25.017-9.309c-7.599-2.827-16.051 1.041-18.879 8.639-2.827 7.599 1.041 16.051 8.639 18.879l25.983 9.668s3.734-6.867 5.789-13.451c2.648-8.483 3.484-14.426 3.484-14.426z" fill="#ff5f45" stroke-linejoin="round"/><path d="m387.94 251.96-31.078-11.23-28.34-65.832-.117.05c.776 7.319-26.506 25.137-62.598 40.673s-67.785 23.107-72.568 17.513l-.117.05 28.423 66.026-13.211 30.053c-4.283 9.744-4.325 20.828-.117 30.603l102.055 237.075c8.37 19.443 61.592 21.081 117.358-2.925s92.958-64.566 84.588-84.009l-102.084-237.14c-4.192-9.737-12.226-17.306-22.196-20.909z" fill="url(#b)" stroke-miterlimit="10"/><path d="m399.291 274.997c-11.521 15.212-43.268 39.519-84.255 57.164-38.98 16.78-75.789 23.002-95.233 21.611" fill="none" stroke-miterlimit="10"/><path d="m344.006 210.868c3.624 6.778.589 9.951.532 9.989-5.202 5.983-24.845 19.755-60.635 35.162-31.941 13.75-71.27 24.168-74.804 14.28-2.414 3.399-4.027 6.915-2.845 9.661 2.584 6.003 11.704 6.793 29.573 2.559 14.46-3.426 32.843-9.798 51.76-17.942 18.918-8.144 36.179-17.116 48.608-25.265 15.355-10.069 21.049-17.236 18.465-23.239-1.449-3.365-4.708-5.084-10.654-5.206z" fill="url(#c)" stroke-miterlimit="10"/><path d="m334.324 186.127c.379.963 2.891 4.855.694 7.082-5.089 8.818-52.521 31.393-93.833 45.223 1.116-.225 6.29 2.504 41.369-9.562 5.027-1.729 33.354-12.877 49.625-23.667 8.688-5.762 12.315-11.486 10.975-14.6-1.199-2.784-4.398-4.126-8.83-4.477z" fill="url(#d)" stroke-miterlimit="10"/><path d="m318.848 224.262s-20.591 4.976-33.979 11.087c-24.555 9.777-59.319 21.738-76.037 23.231-6.978.623-8.407-6.715-8.48-6.988-2.922 3.545-4.219 6.87-2.994 9.714 6.857 15.929 78.216-14.64 81.276-15.89 33.804-13.81 40.214-21.156 40.214-21.156z" fill="url(#e)" stroke-miterlimit="10"/><path d="m382.289 584.52c55.509-9.494 130.41-73.282 125.006-85.835l-90.413-210.146s-15.547 27.537-76.357 57.576c-16.998 8.397-37.759 15.866-52.347 18.798l94.111 219.608z" fill="#c7c2fe" stroke-miterlimit="10"/><path d="m248.477 58.609c-.332-.193-40.592-23.5-42.813-24.709-6.77-3.686-31.853 25.8-54.243 66.935s-33.61 78.343-26.839 82.028c2.921 1.591 38.811 22.46 39.039 22.591 6.674 3.857 31.081-25.888 54.514-66.439s37.018-76.55 30.344-80.407z" fill="url(#f)" stroke-miterlimit="10"/><ellipse cx="206.048" cy="132.032" fill="url(#g)" rx="84.801" ry="13.958" stroke-miterlimit="10" transform="matrix(.50033249 -.86583335 .86583335 .50033249 -11.363 244.374)"/><g stroke-linejoin="round"><path d="m225.456 77.734c-5.586 14.122-14.363 32.026-25.283 50.903-10.898 18.868-22.017 35.397-31.462 47.274 5.587-14.122 14.352-31.996 25.25-50.864 10.91-18.898 22.029-35.427 31.494-47.313z" fill="#898994" stroke-linecap="round"/><rect fill="#0f8cbd" height="89.929" rx="15.908" transform="matrix(.99315231 .11682674 -.11682674 .99315231 20.739 -51.177)" width="31.816" x="431.028" y="106.366"/><path d="m462.72 153.319-3.379 28.727c-1.026 8.726-8.932 14.967-17.658 13.941-8.726-1.026-14.967-8.932-13.941-17.658l3.51-29.836s8.468-.209 15.833 1.061c9.49 1.636 15.635 3.765 15.635 3.765z" fill="#33bcf2"/><rect fill="#0f8cbd" height="89.929" rx="15.908" transform="matrix(-.00371754 .99999309 -.99999309 -.00371754 466.991 -189.327)" width="31.816" x="311.9" y="93.001"/><path d="m327.88 153.874 28.925.108c8.786.033 15.934-7.063 15.967-15.849.033-8.786-7.063-15.934-15.849-15.967l-30.041-.112s-1.228 8.381-.855 15.845c.48 9.618 1.854 15.975 1.854 15.975z" fill="#33bcf2"/><rect fill="#ba341d" height="89.929" rx="15.908" transform="matrix(.76821649 .64019015 -.64019015 .76821649 121.757 -258.832)" width="31.816" x="402.416" y="-6.235"/><path d="m430.629 48.813 18.518-22.22c5.625-6.749 4.713-16.78-2.037-22.405-6.749-5.625-16.78-4.713-22.405 2.036l-19.232 23.078s9.171.247 16.13 5.848c7.502 6.038 9.027 13.663 9.027 13.663z" fill="#ff5f45"/><path d="m388.978 55.956c8.402-.568 16.494 4.882 17.599 14.533" fill="none"/><rect fill="#0f8cbd" height="124.907" rx="21.614" transform="matrix(-.50033249 .86583335 -.86583335 -.50033249 494.677 657.992)" width="43.229" x="35.863" y="409.279"/><path d="m46.505 490.356-34.785-20.101c-10.566-6.106-14.289-19.434-8.317-29.77 5.973-10.336 19.38-13.765 29.945-7.659l36.128 20.877s1.771 11.445-4.673 22.926c-6.404 11.41-18.299 13.727-18.299 13.727z" fill="#33bcf2"/></g></g></svg>